<svg width="12" height="20" viewBox="0 0 12 20" fill="none" xmlns="http://www.w3.org/2000/svg">
<path d="M0.7267 9.42813C0.354772 9.80006 0.354772 10.4031 0.726699 10.775C1.09863 11.1469 1.70164 11.1469 2.07357 10.775L10.8282 2.02035C11.2002 1.64842 11.2002 1.04541 10.8282 0.673477C10.4563 0.301549 9.85328 0.301549 9.48135 0.673477L0.7267 9.42813Z" fill="white"/>
<path d="M9.48135 19.5297C9.85328 19.9016 10.4563 19.9016 10.8282 19.5297C11.2002 19.1577 11.2002 18.5547 10.8282 18.1828L2.07357 9.42813C1.70164 9.05621 1.09863 9.0562 0.7267 9.42813C0.354772 9.80006 0.354772 10.4031 0.726699 10.775L9.48135 19.5297Z" fill="white"/>
</svg>
