<svg width="16" height="9" viewBox="0 0 16 9" fill="none" xmlns="http://www.w3.org/2000/svg">
<path d="M7.51117 1.50578C7.23503 1.22964 7.23503 0.781924 7.51117 0.505782C7.78732 0.22964 8.23503 0.22964 8.51117 0.505782L15.4999 7.49454C15.7761 7.77068 15.7761 8.21839 15.4999 8.49454C15.2238 8.77068 14.7761 8.77068 14.4999 8.49454L7.51117 1.50578Z" fill="#5A5A5A"/>
<path d="M1.49994 8.49455C1.2238 8.77069 0.776084 8.77069 0.499942 8.49455C0.2238 8.21841 0.2238 7.7707 0.499942 7.49455L7.49457 0.499923C7.77072 0.223781 8.21843 0.223782 8.49457 0.499924C8.77071 0.776066 8.77071 1.22378 8.49457 1.49992L1.49994 8.49455Z" fill="#5A5A5A"/>
</svg>
