<svg width="16" height="9" viewBox="0 0 16 9" fill="none" xmlns="http://www.w3.org/2000/svg">
<path d="M8.48883 7.48885C8.76497 7.76499 8.76497 8.2127 8.48883 8.48885C8.21269 8.76499 7.76497 8.76499 7.48883 8.48885L0.500075 1.50009C0.223933 1.22395 0.223933 0.776235 0.500075 0.500093C0.776217 0.223951 1.22393 0.22395 1.50007 0.500092L8.48883 7.48885Z" fill="#5A5A5A"/>
<path d="M14.5001 0.500075C14.7762 0.223933 15.2239 0.223934 15.5001 0.500076C15.7762 0.776218 15.7762 1.22393 15.5001 1.50007L8.50543 8.49471C8.22928 8.77085 7.78157 8.77085 7.50543 8.4947C7.22929 8.21856 7.22929 7.77085 7.50543 7.49471L14.5001 0.500075Z" fill="#5A5A5A"/>
</svg>
