<svg xmlns="http://www.w3.org/2000/svg" width="24" height="24" viewBox="0 0 24 24" fill="none">
  <path d="M11.8125 0.865912C11.7375 0.894037 11.5969 0.978412 11.5125 1.06279C11.3531 1.19404 11.3437 1.66279 11.3437 8.33779V15.4628L9.68437 13.8128C8.64375 12.7815 7.92187 12.1347 7.75312 12.0972C7.28437 11.9753 6.84375 12.4347 6.975 12.9222C7.00312 13.0347 8.08125 14.1784 9.36562 15.4628C11.4281 17.5253 11.7375 17.7972 12 17.7972C12.2625 17.7972 12.5719 17.5253 14.6344 15.4628C15.9187 14.1784 16.9969 13.0347 17.0344 12.9128C17.1562 12.4347 16.65 11.9659 16.1812 12.1065C16.0781 12.1347 15.2344 12.9128 14.325 13.8128L12.6562 15.4628V8.33779C12.6562 1.66279 12.6469 1.19404 12.4969 1.06279C12.2906 0.884662 12 0.800287 11.8125 0.865912Z" fill="white"/>
  <path d="M0.234375 11.8159L0 12.0409V15.5846C0 18.4721 0.028125 19.2409 0.140625 19.6909C0.6 21.4253 2.07188 22.7659 3.80625 23.019C4.66875 23.1409 19.3313 23.1409 20.1938 23.019C21.9281 22.7659 23.4094 21.4159 23.8594 19.6721C23.9719 19.2409 24 18.4346 24 15.6315V12.1346L23.7656 11.9096C23.4937 11.6284 23.1656 11.6096 22.8656 11.8534L22.6406 12.0315L22.5469 19.5034L22.2938 19.9721C21.975 20.5909 21.2531 21.2565 20.6719 21.4815C20.2219 21.6503 19.8563 21.6596 12 21.6596C4.14375 21.6596 3.77813 21.6503 3.32812 21.4815C2.74688 21.2565 2.025 20.5909 1.70625 19.9721L1.45312 19.5034L1.35938 11.9378L1.13438 11.7596C0.834375 11.5159 0.50625 11.5346 0.234375 11.8159Z" fill="white"/>
</svg>