<svg width="12" height="20" viewBox="0 0 12 20" fill="none" xmlns="http://www.w3.org/2000/svg">
<path d="M11.2733 9.42813C11.6452 9.80006 11.6452 10.4031 11.2733 10.775C10.9014 11.1469 10.2984 11.1469 9.92642 10.775L1.17177 2.02035C0.799841 1.64842 0.79984 1.04541 1.17177 0.673477C1.5437 0.301549 2.14671 0.301549 2.51864 0.673477L11.2733 9.42813Z" fill="white"/>
<path d="M2.51864 19.5297C2.14671 19.9016 1.5437 19.9016 1.17177 19.5297C0.79984 19.1577 0.79984 18.5547 1.17177 18.1828L9.92642 9.42813C10.2984 9.05621 10.9014 9.0562 11.2733 9.42813C11.6452 9.80006 11.6452 10.4031 11.2733 10.775L2.51864 19.5297Z" fill="white"/>
</svg>
