<svg width="20" height="20" viewBox="0 0 20 20" fill="none" xmlns="http://www.w3.org/2000/svg">
<path d="M19.3744 18.1247C19.7196 18.4699 19.7196 19.0295 19.3744 19.3747C19.0293 19.7198 18.4696 19.7198 18.1245 19.3747L0.624872 1.87506C0.279702 1.52989 0.279703 0.970259 0.624873 0.625089C0.970043 0.279918 1.52967 0.279918 1.87484 0.625089L19.3744 18.1247Z" fill="white"/>
<path d="M18.1244 0.625639C18.4696 0.280469 19.0293 0.28047 19.3744 0.62564C19.7196 0.97081 19.7196 1.53044 19.3744 1.87561L1.87482 19.3752C1.52965 19.7204 0.970015 19.7204 0.624844 19.3752C0.279674 19.03 0.279674 18.4704 0.624844 18.1252L18.1244 0.625639Z" fill="white"/>
</svg>
