<svg width="213" height="40" viewBox="0 0 213 40" fill="none" xmlns="http://www.w3.org/2000/svg">
<g clip-path="url(#clip0_2501_1783)">
<path d="M47.53 18.34H51.31V14.2H64.09V11.23H51.31V8.89998H64.44V5.66998H47.53V18.34Z" fill="white"/>
<path d="M81.83 6.11997C80.31 5.64997 78.33 5.40997 75.9 5.40997C73.48 5.40997 71.51 5.64997 69.97 6.11997C68.43 6.58997 67.3 7.30997 66.58 8.27997C65.86 9.24997 65.49 10.49 65.49 12.02C65.49 13.53 65.85 14.77 66.58 15.75C67.3 16.72 68.44 17.44 69.97 17.91C71.51 18.38 73.48 18.62 75.9 18.62C78.33 18.62 80.3 18.38 81.83 17.91C83.35 17.44 84.48 16.72 85.21 15.75C85.94 14.78 86.31 13.54 86.31 12.02C86.31 10.5 85.94 9.24997 85.21 8.27997C84.49 7.30997 83.36 6.58997 81.83 6.11997ZM82.15 13.56C81.94 13.99 81.59 14.33 81.09 14.6C80.59 14.87 79.92 15.06 79.07 15.18C78.22 15.3 77.17 15.37 75.9 15.37C74.2 15.37 72.87 15.26 71.91 15.04C70.95 14.82 70.27 14.47 69.87 13.97C69.47 13.47 69.27 12.82 69.27 12C69.27 11.18 69.47 10.53 69.87 10.03C70.27 9.52997 70.95 9.17997 71.91 8.95997C72.87 8.73997 74.2 8.63997 75.9 8.63997C77.16 8.63997 78.22 8.69997 79.07 8.81997C79.92 8.93997 80.59 9.12997 81.09 9.39997C81.59 9.66997 81.94 10.01 82.15 10.44C82.36 10.87 82.47 11.39 82.47 12.01C82.47 12.61 82.36 13.13 82.15 13.56Z" fill="white"/>
<path d="M103.83 13.84C104.49 13.51 105 13.04 105.35 12.42C105.7 11.8 105.88 11.03 105.88 10.1C105.88 9.26999 105.75 8.56999 105.5 7.99999C105.25 7.42999 104.88 6.97999 104.41 6.63999C103.94 6.29999 103.38 6.05999 102.73 5.90999C102.08 5.75999 101.36 5.67999 100.58 5.67999H87.89V18.35H91.66V14.67H96.47L101.02 18.35H105.76L101.6 15.08L100.6 14.47L101.42 14.45C102.36 14.37 103.16 14.17 103.83 13.84ZM100.21 11.84H91.66V8.89999H100.21C100.84 8.89999 101.29 9.00999 101.57 9.21999C101.84 9.42999 101.98 9.81999 101.98 10.39C101.98 10.91 101.84 11.28 101.57 11.5C101.3 11.73 100.84 11.84 100.21 11.84Z" fill="white"/>
<path d="M119.74 15.24L112.16 5.66998H107.57V18.34H111.34V10.15L117.79 18.34H121.6L128.04 10.15V18.34H131.82V5.66998H127.3L119.74 15.24Z" fill="white"/>
<path d="M144.69 5.66998H141.96H140.81L132.56 18.34H137.09L138.62 15.89H147.98L149.51 18.34H154.08L145.83 5.66998H144.69ZM140.26 13.27L143.3 8.39998L146.34 13.27H140.26Z" fill="white"/>
<path d="M184.36 5.66998H181.63H180.48L172.23 18.34H176.76L178.29 15.89H187.65L189.18 18.34H193.75L185.5 5.66998H184.36ZM179.94 13.27L182.98 8.39998L186.02 13.27H179.94Z" fill="white"/>
<path d="M207.24 14.46L208.06 14.44C209 14.37 209.8 14.16 210.47 13.84C211.13 13.51 211.64 13.04 211.99 12.42C212.34 11.8 212.52 11.03 212.52 10.1C212.52 9.26999 212.39 8.56999 212.14 7.99999C211.89 7.42999 211.52 6.97999 211.05 6.63999C210.58 6.29999 210.02 6.05999 209.37 5.90999C208.72 5.75999 208 5.67999 207.22 5.67999H194.53V18.35H198.3V14.67H203.11L207.66 18.35H212.4L208.24 15.08L207.24 14.46ZM198.3 11.84V8.89999H206.85C207.48 8.89999 207.93 9.00999 208.21 9.21999C208.48 9.42999 208.62 9.81999 208.62 10.39C208.62 10.91 208.48 11.28 208.21 11.5C207.94 11.72 207.49 11.83 206.85 11.83H198.3V11.84Z" fill="white"/>
<path d="M153.15 11.88C153.17 10.94 153.31 10.09 153.6 9.34996C153.9 8.55996 154.35 7.87996 154.93 7.33996C155.51 6.78996 156.22 6.36996 157.06 6.07996C157.9 5.78996 158.85 5.64996 159.92 5.64996H171.48V8.91996H160.31C159.22 8.91996 158.38 9.17996 157.79 9.70996C157.22 10.23 156.93 10.99 156.91 11.99C156.93 12.99 157.22 13.76 157.79 14.27C158.38 14.8 159.22 15.06 160.31 15.06H171.48V18.33H159.9C158.83 18.33 157.88 18.19 157.04 17.9C156.2 17.61 155.49 17.19 154.91 16.64C154.33 16.09 153.89 15.42 153.58 14.63C153.3 13.89 153.15 13.04 153.13 12.1V11.88H153.15Z" fill="white"/>
<path d="M29.71 18.78C25.09 28.94 19.58 33.52 18.82 33.58C17.98 33.52 11.4 27.54 7.23 17.44C10.62 16.7 14.92 16.35 19.05 16.35C21.2 16.35 23.29 16.51 25.3 16.68C25.87 15.21 26.34 13.84 26.82 11.92C24.36 11.65 21.78 11.43 19.05 11.43C14.31 11.43 9.64 11.86 5.89 12.62C5.33 10.79 4.82 9.15 4.5 6.32C8.44 5.43 13.54 4.78 18.7 4.78C22.02 4.78 25.42 4.95 28.35 5.39C28.63 3.88 28.77 2.62 28.86 0.69C25.83 0.24 22.39 0 18.84 0C11.51 0 4.83 1.14 0.350003 2.8C0.300003 2.82 0.0200028 2.92 0.0100028 2.93C-0.349997 24.31 18.28 38.53 18.83 39.11C19.44 38.51 37.7 24.71 37.7 2.95L37.62 2.9C37.55 2.87 37.31 2.77 36.88 2.62C35.78 2.23 34.95 2.01 33.64 1.69C33.64 1.69 33.3 6.57 32.8 9.03C31.69 14.55 29.71 18.78 29.71 18.78Z" fill="white"/>
<path d="M54.83 35.2H47.53V27.03H54.83C55.61 27.03 56.3 27.1 56.89 27.25C57.48 27.4 57.98 27.63 58.39 27.94C58.8 28.26 59.1 28.67 59.31 29.19C59.51 29.71 59.62 30.34 59.62 31.1C59.62 31.86 59.52 32.5 59.31 33.02C59.1 33.54 58.8 33.96 58.39 34.28C57.99 34.6 57.49 34.83 56.89 34.97C56.29 35.13 55.61 35.2 54.83 35.2ZM49 28.29V33.95H54.7C55.52 33.95 56.18 33.86 56.68 33.67C57.18 33.48 57.54 33.18 57.76 32.77C57.98 32.35 58.1 31.8 58.1 31.12C58.1 30.42 57.99 29.87 57.76 29.47C57.54 29.06 57.17 28.77 56.68 28.58C56.18 28.4 55.52 28.3 54.7 28.3H49V28.29Z" fill="white"/>
<path d="M77.63 35.2H67.05V27.03H77.63V28.2H68.51V30.54H77.4V31.53H68.51V34.02H77.63V35.2Z" fill="white"/>
<path d="M95.75 33.03C95.75 33.44 95.67 33.79 95.51 34.08C95.35 34.37 95.08 34.61 94.7 34.8C94.32 34.99 93.8 35.13 93.15 35.21C92.5 35.3 91.68 35.34 90.7 35.34C90.08 35.34 89.42 35.31 88.74 35.26C88.06 35.21 87.4 35.14 86.78 35.04C86.15 34.95 85.6 34.85 85.13 34.75L85.33 33.55C85.71 33.64 86.13 33.72 86.59 33.79C87.05 33.86 87.52 33.93 88.03 33.98C88.53 34.04 89.04 34.08 89.55 34.11C90.06 34.14 90.55 34.16 91.04 34.16C91.74 34.16 92.31 34.14 92.75 34.09C93.19 34.05 93.52 33.98 93.76 33.89C94 33.8 94.16 33.68 94.25 33.52C94.34 33.37 94.38 33.19 94.38 32.98C94.38 32.68 94.32 32.45 94.2 32.3C94.08 32.15 93.9 32.04 93.67 31.98C93.44 31.91 93.15 31.86 92.81 31.83L88.15 31.42C87.46 31.37 86.87 31.27 86.41 31.11C85.94 30.95 85.59 30.72 85.36 30.42C85.13 30.12 85.01 29.71 85.01 29.21C85.01 28.65 85.17 28.2 85.5 27.86C85.83 27.52 86.36 27.27 87.11 27.11C87.85 26.95 88.84 26.88 90.06 26.88C90.46 26.88 90.89 26.89 91.35 26.92C91.81 26.95 92.28 26.99 92.76 27.03C93.24 27.08 93.71 27.13 94.16 27.2C94.61 27.26 95.02 27.34 95.4 27.42L95.16 28.56C94.82 28.49 94.43 28.42 93.99 28.36C93.55 28.3 93.09 28.25 92.6 28.2C92.11 28.16 91.63 28.12 91.14 28.09C90.66 28.06 90.2 28.05 89.76 28.05C89.06 28.05 88.48 28.07 88.04 28.1C87.6 28.13 87.26 28.2 87.02 28.29C86.78 28.38 86.62 28.5 86.53 28.64C86.44 28.78 86.4 28.96 86.4 29.17C86.4 29.43 86.46 29.64 86.59 29.78C86.72 29.92 86.91 30.02 87.16 30.07C87.41 30.13 87.72 30.18 88.09 30.23L92.63 30.61C93.13 30.65 93.57 30.72 93.96 30.81C94.35 30.91 94.68 31.04 94.95 31.22C95.22 31.4 95.42 31.63 95.56 31.92C95.68 32.24 95.75 32.6 95.75 33.03Z" fill="white"/>
<path d="M104.69 35.2H103.23V27.03H104.69V35.2Z" fill="white"/>
<path d="M112.14 31.11C112.14 30.4 112.26 29.78 112.49 29.25C112.72 28.72 113.08 28.29 113.56 27.94C114.04 27.59 114.67 27.33 115.43 27.16C116.19 26.99 117.11 26.9 118.17 26.9C118.8 26.9 119.44 26.93 120.09 27C120.74 27.06 121.37 27.15 121.99 27.26C122.6 27.37 123.17 27.49 123.68 27.61L123.4 28.84C122.94 28.74 122.43 28.63 121.85 28.53C121.27 28.43 120.66 28.34 120.02 28.27C119.38 28.2 118.73 28.16 118.07 28.16C117.22 28.16 116.5 28.22 115.92 28.34C115.35 28.46 114.89 28.64 114.55 28.89C114.21 29.13 113.97 29.44 113.82 29.81C113.67 30.18 113.6 30.61 113.6 31.1C113.6 31.6 113.67 32.04 113.82 32.41C113.97 32.78 114.21 33.08 114.55 33.33C114.89 33.57 115.35 33.76 115.92 33.88C116.5 34 117.21 34.06 118.07 34.06C118.56 34.06 119.04 34.04 119.53 33.99C120.01 33.94 120.48 33.88 120.94 33.82C121.4 33.75 121.81 33.68 122.17 33.61V31H123.68V34.63C123.17 34.76 122.61 34.88 121.99 34.98C121.37 35.09 120.74 35.17 120.09 35.24C119.44 35.3 118.8 35.34 118.17 35.34C117.11 35.34 116.19 35.25 115.43 35.08C114.67 34.91 114.04 34.65 113.56 34.3C113.08 33.95 112.72 33.52 112.49 32.99C112.25 32.46 112.14 31.83 112.14 31.11Z" fill="white"/>
<path d="M132.71 35.2H131.25V27.03H132.93L141.31 33.62V27.03H142.77V35.2H141.1L132.71 28.56V35.2Z" fill="white"/>
</g>
<defs>
<clipPath id="clip0_2501_1783">
<rect width="212.51" height="39.11" fill="white"/>
</clipPath>
</defs>
</svg>
