<svg xmlns="http://www.w3.org/2000/svg" xmlns:xlink="http://www.w3.org/1999/xlink"><symbol id="icon-arr-down" viewBox="0 0 16 9"><path d="M8.489 7.489a.707.707 0 01-1 1L.5 1.5a.707.707 0 011-1L8.49 7.49z"/><path d="M14.5.5a.707.707 0 011 1L8.505 8.495a.707.707 0 01-1-1L14.5.5z"/></symbol><symbol id="icon-arr-left" viewBox="0 0 12 20"><path d="M.727 9.428a.952.952 0 101.347 1.347l8.754-8.755A.952.952 0 109.481.673L.727 9.428z"/><path d="M9.481 19.53a.952.952 0 001.347-1.347L2.074 9.428a.952.952 0 00-1.347 1.347L9.48 19.53z"/></symbol><symbol id="icon-arr-right" viewBox="0 0 12 20"><path d="M11.273 9.428a.952.952 0 01-1.347 1.347L1.172 2.02A.952.952 0 112.519.673l8.754 8.755z"/><path d="M2.519 19.53a.952.952 0 01-1.347-1.347l8.754-8.755a.952.952 0 011.347 1.347L2.52 19.53z"/></symbol><symbol id="icon-arr-up" viewBox="0 0 16 9"><path d="M7.511 1.506a.707.707 0 011-1L15.5 7.495a.707.707 0 11-1 1L7.51 1.505z"/><path d="M1.5 8.495a.707.707 0 01-1-1L7.495.5a.707.707 0 011 1L1.5 8.495z"/></symbol><symbol id="icon-close" viewBox="0 0 20 20"><path d="M19.374 18.125a.884.884 0 11-1.25 1.25l-17.5-17.5a.884.884 0 011.25-1.25l17.5 17.5z"/><path d="M18.124.626a.884.884 0 011.25 1.25l-17.5 17.5a.884.884 0 11-1.25-1.25l17.5-17.5z"/></symbol><symbol id="icon-download" viewBox="0 0 24 24"><path d="M11.813.866a1.026 1.026 0 00-.3.197c-.16.131-.17.6-.17 7.275v7.125l-1.659-1.65c-1.04-1.032-1.762-1.678-1.93-1.716-.47-.122-.91.338-.779.825.028.113 1.106 1.256 2.39 2.54 2.063 2.063 2.373 2.335 2.635 2.335.262 0 .572-.272 2.634-2.334 1.285-1.285 2.363-2.428 2.4-2.55.122-.478-.384-.947-.853-.806-.103.028-.947.806-1.856 1.706l-1.669 1.65V8.338c0-6.675-.01-7.144-.16-7.275C12.292.885 12 .8 11.813.866z"/><path d="M.234 11.816L0 12.04v3.544c0 2.887.028 3.656.14 4.106.46 1.734 1.932 3.075 3.666 3.328.863.122 15.525.122 16.388 0 1.734-.253 3.215-1.603 3.665-3.347.113-.431.141-1.237.141-4.04v-3.497l-.234-.225c-.272-.282-.6-.3-.9-.057l-.225.178-.094 7.472-.253.47c-.319.618-1.04 1.284-1.622 1.509-.45.168-.816.178-8.672.178-7.856 0-8.222-.01-8.672-.178-.581-.226-1.303-.891-1.622-1.51l-.253-.469-.094-7.565-.225-.178c-.3-.244-.628-.225-.9.056z"/></symbol><symbol id="icon-play" viewBox="0 0 18 21"><path d="M16.27 7.978c1.835 1.181 1.835 3.863 0 5.044L5.313 20.08C3.315 21.366.688 19.933.688 17.558V3.443C.688 1.068 3.315-.365 5.312.92L16.27 7.978z"/></symbol> <view id="icon-arr-down-view-red" viewBox="0 0 16 9" preserveAspectRatio="none"/><view id="icon-arr-down-view-dark" viewBox="0 19 16 9" preserveAspectRatio="none"/><view id="icon-arr-down-view-white" viewBox="0 38 16 9" preserveAspectRatio="none"/><view id="icon-arr-left-view-red" viewBox="0 57 12 20" preserveAspectRatio="none"/><view id="icon-arr-left-view-dark" viewBox="0 87 12 20" preserveAspectRatio="none"/><view id="icon-arr-left-view-white" viewBox="0 117 12 20" preserveAspectRatio="none"/><view id="icon-arr-right-view-red" viewBox="0 147 12 20" preserveAspectRatio="none"/><view id="icon-arr-right-view-dark" viewBox="0 177 12 20" preserveAspectRatio="none"/><view id="icon-arr-right-view-white" viewBox="0 207 12 20" preserveAspectRatio="none"/><view id="icon-arr-up-view-red" viewBox="0 237 16 9" preserveAspectRatio="none"/><view id="icon-arr-up-view-dark" viewBox="0 256 16 9" preserveAspectRatio="none"/><view id="icon-arr-up-view-white" viewBox="0 275 16 9" preserveAspectRatio="none"/><view id="icon-close-view-red" viewBox="0 294 20 20" preserveAspectRatio="none"/><view id="icon-close-view-dark" viewBox="0 324 20 20" preserveAspectRatio="none"/><view id="icon-close-view-white" viewBox="0 354 20 20" preserveAspectRatio="none"/><view id="icon-download-view-red" viewBox="0 384 24 24" preserveAspectRatio="none"/><view id="icon-download-view-dark" viewBox="0 418 24 24" preserveAspectRatio="none"/><view id="icon-download-view-white" viewBox="0 452 24 24" preserveAspectRatio="none"/><view id="icon-play-view-red" viewBox="0 486 18 21" preserveAspectRatio="none"/><view id="icon-play-view-dark" viewBox="0 517 18 21" preserveAspectRatio="none"/><view id="icon-play-view-white" viewBox="0 548 18 21" preserveAspectRatio="none"/> <use xlink:href="#icon-arr-down" x="0" y="0" width="16" height="9" style="fill:#eb5757"/><use xlink:href="#icon-arr-down" x="0" y="19" width="16" height="9" style="fill:#5a5a5a"/><use xlink:href="#icon-arr-down" x="0" y="38" width="16" height="9" style="fill:#ffffff"/><use xlink:href="#icon-arr-left" x="0" y="57" width="12" height="20" style="fill:#eb5757"/><use xlink:href="#icon-arr-left" x="0" y="87" width="12" height="20" style="fill:#5a5a5a"/><use xlink:href="#icon-arr-left" x="0" y="117" width="12" height="20" style="fill:#ffffff"/><use xlink:href="#icon-arr-right" x="0" y="147" width="12" height="20" style="fill:#eb5757"/><use xlink:href="#icon-arr-right" x="0" y="177" width="12" height="20" style="fill:#5a5a5a"/><use xlink:href="#icon-arr-right" x="0" y="207" width="12" height="20" style="fill:#ffffff"/><use xlink:href="#icon-arr-up" x="0" y="237" width="16" height="9" style="fill:#eb5757"/><use xlink:href="#icon-arr-up" x="0" y="256" width="16" height="9" style="fill:#5a5a5a"/><use xlink:href="#icon-arr-up" x="0" y="275" width="16" height="9" style="fill:#ffffff"/><use xlink:href="#icon-close" x="0" y="294" width="20" height="20" style="fill:#eb5757"/><use xlink:href="#icon-close" x="0" y="324" width="20" height="20" style="fill:#5a5a5a"/><use xlink:href="#icon-close" x="0" y="354" width="20" height="20" style="fill:#ffffff"/><use xlink:href="#icon-download" x="0" y="384" width="24" height="24" style="fill:#eb5757"/><use xlink:href="#icon-download" x="0" y="418" width="24" height="24" style="fill:#5a5a5a"/><use xlink:href="#icon-download" x="0" y="452" width="24" height="24" style="fill:#ffffff"/><use xlink:href="#icon-play" x="0" y="486" width="18" height="21" style="fill:#eb5757"/><use xlink:href="#icon-play" x="0" y="517" width="18" height="21" style="fill:#5a5a5a"/><use xlink:href="#icon-play" x="0" y="548" width="18" height="21" style="fill:#ffffff"/></svg>